<mxfile host="Electron" agent="Mozilla/5.0 (Windows NT 10.0; Win64; x64) AppleWebKit/537.36 (KHTML, like Gecko) draw.io/24.7.17 Chrome/128.0.6613.36 Electron/32.0.1 Safari/537.36" version="24.7.17">
  <diagram name="Page-1" id="ceSTelL_U65u6Lh66TZ6">
    <mxGraphModel dx="2625" dy="1793" grid="1" gridSize="10" guides="1" tooltips="1" connect="1" arrows="1" fold="1" page="1" pageScale="1" pageWidth="1169" pageHeight="1654" math="0" shadow="0">
      <root>
        <mxCell id="0" />
        <mxCell id="1" parent="0" />
        <mxCell id="HAwpHQFJ-cXYx5VitQ2V-3" value="&lt;b&gt;Infraestrutura (Infra)&lt;/b&gt;&lt;div&gt;&lt;font style=&quot;font-size: 8px;&quot;&gt;Sub-projeto responsável por centralizar comunicação com banco de dados, bem como comunicação com outras aplicações.&lt;/font&gt;&lt;/div&gt;" style="shape=hexagon;perimeter=hexagonPerimeter2;whiteSpace=wrap;html=1;fixedSize=1;fillColor=#1ba1e2;fontColor=#ffffff;strokeColor=#006EAF;" vertex="1" parent="1">
          <mxGeometry x="780" y="500" width="140" height="120" as="geometry" />
        </mxCell>
        <mxCell id="HAwpHQFJ-cXYx5VitQ2V-4" value="&lt;b&gt;Manipuladores (Handlers)&lt;/b&gt;&lt;div&gt;&lt;font style=&quot;font-size: 8px;&quot;&gt;Sub-projeto responsável por armazenar e executar as regras de negócio da aplicação de forma desacoplada.&lt;/font&gt;&lt;/div&gt;" style="shape=hexagon;perimeter=hexagonPerimeter2;whiteSpace=wrap;html=1;fixedSize=1;fillColor=#1ba1e2;fontColor=#ffffff;strokeColor=#006EAF;" vertex="1" parent="1">
          <mxGeometry x="280" y="500" width="140" height="120" as="geometry" />
        </mxCell>
        <mxCell id="HAwpHQFJ-cXYx5VitQ2V-5" value="&lt;b&gt;Compartilhado&amp;nbsp;&lt;span style=&quot;background-color: initial;&quot;&gt;(Shared)&lt;/span&gt;&lt;/b&gt;&lt;div&gt;&lt;span style=&quot;background-color: initial;&quot;&gt;&lt;font style=&quot;font-size: 8px;&quot;&gt;Sub-projeto que centraliza blocos de código reaproveitáveis com os outros sub-projetos.&lt;/font&gt;&lt;/span&gt;&lt;/div&gt;" style="shape=hexagon;perimeter=hexagonPerimeter2;whiteSpace=wrap;html=1;fixedSize=1;fillColor=#1ba1e2;fontColor=#ffffff;strokeColor=#006EAF;" vertex="1" parent="1">
          <mxGeometry x="780" y="710" width="140" height="120" as="geometry" />
        </mxCell>
        <mxCell id="HAwpHQFJ-cXYx5VitQ2V-11" style="edgeStyle=orthogonalEdgeStyle;rounded=0;orthogonalLoop=1;jettySize=auto;html=1;exitX=0.5;exitY=1;exitDx=0;exitDy=0;entryX=0.5;entryY=0;entryDx=0;entryDy=0;" edge="1" parent="1" source="HAwpHQFJ-cXYx5VitQ2V-6" target="HAwpHQFJ-cXYx5VitQ2V-10">
          <mxGeometry relative="1" as="geometry" />
        </mxCell>
        <mxCell id="HAwpHQFJ-cXYx5VitQ2V-20" value="Utiliza" style="edgeLabel;html=1;align=center;verticalAlign=middle;resizable=0;points=[];" vertex="1" connectable="0" parent="HAwpHQFJ-cXYx5VitQ2V-11">
          <mxGeometry x="-0.048" y="2" relative="1" as="geometry">
            <mxPoint as="offset" />
          </mxGeometry>
        </mxCell>
        <mxCell id="HAwpHQFJ-cXYx5VitQ2V-6" value="&lt;b&gt;Apresentação (API)&lt;/b&gt;&lt;div&gt;&lt;font style=&quot;font-size: 8px;&quot;&gt;Sub-projeto responsável por disponibilizar interface de comunicação com outras aplicações.&lt;/font&gt;&lt;/div&gt;" style="shape=hexagon;perimeter=hexagonPerimeter2;whiteSpace=wrap;html=1;fixedSize=1;fillColor=#1ba1e2;fontColor=#ffffff;strokeColor=#006EAF;" vertex="1" parent="1">
          <mxGeometry x="540" y="390" width="140" height="120" as="geometry" />
        </mxCell>
        <mxCell id="HAwpHQFJ-cXYx5VitQ2V-7" value="&lt;b&gt;Conversores (TypeConverters)&lt;/b&gt;&lt;div&gt;&lt;font style=&quot;font-size: 8px;&quot;&gt;Sub-projeto responsável por controlar as conversões de dados da aplicação.&lt;/font&gt;&lt;/div&gt;" style="shape=hexagon;perimeter=hexagonPerimeter2;whiteSpace=wrap;html=1;fixedSize=1;fillColor=#1ba1e2;fontColor=#ffffff;strokeColor=#006EAF;" vertex="1" parent="1">
          <mxGeometry x="430" y="870" width="140" height="120" as="geometry" />
        </mxCell>
        <mxCell id="HAwpHQFJ-cXYx5VitQ2V-8" value="&lt;b&gt;Validadores&amp;nbsp;&lt;span style=&quot;background-color: initial;&quot;&gt;(Validations)&lt;/span&gt;&lt;/b&gt;&lt;div&gt;&lt;span style=&quot;background-color: initial;&quot;&gt;&lt;font style=&quot;font-size: 8px;&quot;&gt;Sub-projeto responsável por armazenar e controlar as validações de dados da aplicação.&lt;/font&gt;&lt;/span&gt;&lt;/div&gt;" style="shape=hexagon;perimeter=hexagonPerimeter2;whiteSpace=wrap;html=1;fixedSize=1;fillColor=#1ba1e2;fontColor=#ffffff;strokeColor=#006EAF;" vertex="1" parent="1">
          <mxGeometry x="280" y="710" width="140" height="120" as="geometry" />
        </mxCell>
        <mxCell id="HAwpHQFJ-cXYx5VitQ2V-9" value="&lt;b&gt;Testes Unitários&amp;nbsp;&lt;/b&gt;&lt;div&gt;&lt;b&gt;(Tests)&lt;/b&gt;&lt;/div&gt;&lt;div&gt;&lt;font style=&quot;font-size: 8px;&quot;&gt;Sub-projeto responsável por realizar testes unitários nas regras de negócio da aplicação.&lt;/font&gt;&lt;/div&gt;" style="shape=hexagon;perimeter=hexagonPerimeter2;whiteSpace=wrap;html=1;fixedSize=1;fillColor=#1ba1e2;fontColor=#ffffff;strokeColor=#006EAF;" vertex="1" parent="1">
          <mxGeometry x="640" y="870" width="140" height="120" as="geometry" />
        </mxCell>
        <mxCell id="HAwpHQFJ-cXYx5VitQ2V-10" value="&lt;b&gt;Domínio (Domain)&lt;/b&gt;&lt;div&gt;&lt;font style=&quot;font-size: 8px;&quot;&gt;Sub-projeto responsável por armazenar o &quot;coração&quot; da aplicação (entidades, interfaces, enumeradores, etc.)&lt;/font&gt;&lt;/div&gt;" style="shape=hexagon;perimeter=hexagonPerimeter2;whiteSpace=wrap;html=1;fixedSize=1;fillColor=#1ba1e2;fontColor=#ffffff;strokeColor=#006EAF;" vertex="1" parent="1">
          <mxGeometry x="540" y="610" width="140" height="120" as="geometry" />
        </mxCell>
        <mxCell id="HAwpHQFJ-cXYx5VitQ2V-13" value="" style="endArrow=classic;html=1;rounded=0;exitX=1;exitY=0.75;exitDx=0;exitDy=0;entryX=0;entryY=0.25;entryDx=0;entryDy=0;" edge="1" parent="1" source="HAwpHQFJ-cXYx5VitQ2V-4" target="HAwpHQFJ-cXYx5VitQ2V-10">
          <mxGeometry width="50" height="50" relative="1" as="geometry">
            <mxPoint x="640" y="720" as="sourcePoint" />
            <mxPoint x="690" y="670" as="targetPoint" />
          </mxGeometry>
        </mxCell>
        <mxCell id="HAwpHQFJ-cXYx5VitQ2V-26" value="Utiliza" style="edgeLabel;html=1;align=center;verticalAlign=middle;resizable=0;points=[];" vertex="1" connectable="0" parent="HAwpHQFJ-cXYx5VitQ2V-13">
          <mxGeometry x="-0.1115" y="-1" relative="1" as="geometry">
            <mxPoint as="offset" />
          </mxGeometry>
        </mxCell>
        <mxCell id="HAwpHQFJ-cXYx5VitQ2V-14" value="" style="endArrow=classic;html=1;rounded=0;exitX=0;exitY=0.75;exitDx=0;exitDy=0;entryX=1;entryY=0.25;entryDx=0;entryDy=0;" edge="1" parent="1" source="HAwpHQFJ-cXYx5VitQ2V-3" target="HAwpHQFJ-cXYx5VitQ2V-10">
          <mxGeometry width="50" height="50" relative="1" as="geometry">
            <mxPoint x="640" y="720" as="sourcePoint" />
            <mxPoint x="690" y="670" as="targetPoint" />
          </mxGeometry>
        </mxCell>
        <mxCell id="HAwpHQFJ-cXYx5VitQ2V-21" value="Utiliza" style="edgeLabel;html=1;align=center;verticalAlign=middle;resizable=0;points=[];" vertex="1" connectable="0" parent="HAwpHQFJ-cXYx5VitQ2V-14">
          <mxGeometry x="-0.0845" y="-2" relative="1" as="geometry">
            <mxPoint as="offset" />
          </mxGeometry>
        </mxCell>
        <mxCell id="HAwpHQFJ-cXYx5VitQ2V-16" value="" style="endArrow=classic;html=1;rounded=0;exitX=0;exitY=0.25;exitDx=0;exitDy=0;entryX=1;entryY=0.75;entryDx=0;entryDy=0;" edge="1" parent="1" source="HAwpHQFJ-cXYx5VitQ2V-5" target="HAwpHQFJ-cXYx5VitQ2V-10">
          <mxGeometry width="50" height="50" relative="1" as="geometry">
            <mxPoint x="640" y="720" as="sourcePoint" />
            <mxPoint x="690" y="670" as="targetPoint" />
          </mxGeometry>
        </mxCell>
        <mxCell id="HAwpHQFJ-cXYx5VitQ2V-22" value="Utiliza" style="edgeLabel;html=1;align=center;verticalAlign=middle;resizable=0;points=[];" vertex="1" connectable="0" parent="HAwpHQFJ-cXYx5VitQ2V-16">
          <mxGeometry x="-0.0004" y="-3" relative="1" as="geometry">
            <mxPoint as="offset" />
          </mxGeometry>
        </mxCell>
        <mxCell id="HAwpHQFJ-cXYx5VitQ2V-17" value="" style="endArrow=classic;html=1;rounded=0;exitX=1;exitY=0.25;exitDx=0;exitDy=0;entryX=0;entryY=0.75;entryDx=0;entryDy=0;" edge="1" parent="1" source="HAwpHQFJ-cXYx5VitQ2V-8" target="HAwpHQFJ-cXYx5VitQ2V-10">
          <mxGeometry width="50" height="50" relative="1" as="geometry">
            <mxPoint x="640" y="720" as="sourcePoint" />
            <mxPoint x="690" y="670" as="targetPoint" />
          </mxGeometry>
        </mxCell>
        <mxCell id="HAwpHQFJ-cXYx5VitQ2V-25" value="Utiliza" style="edgeLabel;html=1;align=center;verticalAlign=middle;resizable=0;points=[];" vertex="1" connectable="0" parent="HAwpHQFJ-cXYx5VitQ2V-17">
          <mxGeometry x="-0.0892" y="3" relative="1" as="geometry">
            <mxPoint as="offset" />
          </mxGeometry>
        </mxCell>
        <mxCell id="HAwpHQFJ-cXYx5VitQ2V-18" value="" style="endArrow=classic;html=1;rounded=0;exitX=0.5;exitY=0;exitDx=0;exitDy=0;entryX=0.375;entryY=1;entryDx=0;entryDy=0;" edge="1" parent="1" source="HAwpHQFJ-cXYx5VitQ2V-7" target="HAwpHQFJ-cXYx5VitQ2V-10">
          <mxGeometry width="50" height="50" relative="1" as="geometry">
            <mxPoint x="640" y="720" as="sourcePoint" />
            <mxPoint x="690" y="670" as="targetPoint" />
          </mxGeometry>
        </mxCell>
        <mxCell id="HAwpHQFJ-cXYx5VitQ2V-24" value="Utiliza" style="edgeLabel;html=1;align=center;verticalAlign=middle;resizable=0;points=[];" vertex="1" connectable="0" parent="HAwpHQFJ-cXYx5VitQ2V-18">
          <mxGeometry x="0.0155" y="-1" relative="1" as="geometry">
            <mxPoint as="offset" />
          </mxGeometry>
        </mxCell>
        <mxCell id="HAwpHQFJ-cXYx5VitQ2V-19" value="" style="endArrow=classic;html=1;rounded=0;exitX=0.5;exitY=0;exitDx=0;exitDy=0;entryX=0.625;entryY=1;entryDx=0;entryDy=0;" edge="1" parent="1" source="HAwpHQFJ-cXYx5VitQ2V-9" target="HAwpHQFJ-cXYx5VitQ2V-10">
          <mxGeometry width="50" height="50" relative="1" as="geometry">
            <mxPoint x="640" y="720" as="sourcePoint" />
            <mxPoint x="690" y="670" as="targetPoint" />
          </mxGeometry>
        </mxCell>
        <mxCell id="HAwpHQFJ-cXYx5VitQ2V-23" value="Utiliza" style="edgeLabel;html=1;align=center;verticalAlign=middle;resizable=0;points=[];" vertex="1" connectable="0" parent="HAwpHQFJ-cXYx5VitQ2V-19">
          <mxGeometry x="-0.1471" y="-1" relative="1" as="geometry">
            <mxPoint as="offset" />
          </mxGeometry>
        </mxCell>
      </root>
    </mxGraphModel>
  </diagram>
</mxfile>
